<svg width="186" height="209" viewBox="0 0 186 209" fill="none" xmlns="http://www.w3.org/2000/svg">
<path d="M53.6133 117.348C50.8789 117.348 49.5117 115.915 49.5117 113.051C49.5117 112.009 49.9674 111.195 50.8789 110.609C51.7904 109.958 52.832 109.47 54.0039 109.145C55.1758 108.754 56.1198 108.461 56.8359 108.266C59.8958 107.484 62.8906 106.54 65.8203 105.434C68.75 104.327 71.3867 102.895 73.7305 101.137C76.0742 99.3789 77.9297 97.2305 79.2969 94.6914C80.7292 92.0872 81.4453 88.9622 81.4453 85.3164C81.4453 81.2148 80.4688 77.6667 78.5156 74.6719C76.5625 71.6771 73.7956 69.2357 70.2148 67.3477C68.7174 70.4076 66.7969 73.793 64.4531 77.5039C62.1094 81.1497 59.4401 84.7956 56.4453 88.4414C53.4505 92.0872 50.2279 95.4401 46.7773 98.5C43.3268 101.495 39.7135 103.904 35.9375 105.727C32.2266 107.549 28.4831 108.461 24.707 108.461C21.5169 108.461 18.7826 107.647 16.5039 106.02C14.2253 104.392 12.4674 102.276 11.2305 99.6719C10.0586 97.0677 9.47266 94.2682 9.47266 91.2734C9.47266 85.9349 10.612 81.1497 12.8906 76.918C15.1693 72.6862 18.2292 69.0404 22.0703 65.9805C25.9766 62.9206 30.306 60.5443 35.0586 58.8516C35.1888 55.0104 35.3841 51.2669 35.6445 47.6211H16.3086C14.8763 47.6211 13.6393 47.3281 12.5977 46.7422C11.6211 46.1562 11.1328 45.0495 11.1328 43.4219C11.1328 41.8594 11.6536 40.7852 12.6953 40.1992C13.737 39.6133 14.9414 39.3203 16.3086 39.3203H36.1328C36.1979 38.0182 36.263 36.5208 36.3281 34.8281C36.4583 33.1354 36.8815 31.638 37.5977 30.3359C38.3138 29.0339 39.5508 28.3828 41.3086 28.3828C42.6107 28.3828 43.6198 28.6758 44.3359 29.2617C45.1172 29.8477 45.5078 30.8242 45.5078 32.1914C45.5078 33.2982 45.4102 34.5026 45.2148 35.8047C45.0195 37.0417 44.8568 38.2135 44.7266 39.3203H83.8867C85.3841 39.3203 86.5885 39.6133 87.5 40.1992C88.4766 40.7852 88.9648 41.8919 88.9648 43.5195C88.9648 45.082 88.4766 46.1562 87.5 46.7422C86.5234 47.3281 85.319 47.6211 83.8867 47.6211H44.043C43.9779 47.6862 43.9128 48.1419 43.8477 48.9883C43.7826 49.8346 43.7174 50.8112 43.6523 51.918C43.6523 53.0247 43.6198 54.0664 43.5547 55.043C43.4896 55.9544 43.457 56.5078 43.457 56.7031C45.0846 56.4427 46.7122 56.2474 48.3398 56.1172C50.0326 55.987 51.6927 55.9219 53.3203 55.9219C58.0078 55.9219 62.5326 56.4753 66.8945 57.582C71.3216 58.6888 75.293 60.4141 78.8086 62.7578C82.3242 65.1016 85.1237 68.1615 87.207 71.9375C89.2904 75.6484 90.332 80.1406 90.332 85.4141C90.332 91.6641 88.7695 97.0026 85.6445 101.43C82.5846 105.792 78.3203 109.372 72.8516 112.172C69.9219 113.669 66.7969 114.906 63.4766 115.883C60.2214 116.859 56.9336 117.348 53.6133 117.348ZM44.9219 90.1016C48.763 86.4557 52.181 82.4844 55.1758 78.1875C58.2357 73.8255 60.9375 69.2682 63.2812 64.5156C59.8307 63.6042 56.4453 63.1484 53.125 63.1484C51.4974 63.1484 49.8372 63.2461 48.1445 63.4414C46.5169 63.6367 44.8893 63.8971 43.2617 64.2227C43.2617 68.5846 43.4245 72.9141 43.75 77.2109C44.0755 81.5078 44.4661 85.8047 44.9219 90.1016ZM25.3906 100.453C27.474 100.453 29.5898 99.9974 31.7383 99.0859C33.8867 98.1094 35.8073 97.1003 37.5 96.0586C36.5885 91.306 35.9375 86.4883 35.5469 81.6055C35.2214 76.6576 34.9935 71.7747 34.8633 66.957C29.7201 69.3659 25.5859 72.5234 22.4609 76.4297C19.3359 80.3359 17.7734 85.2513 17.7734 91.1758C17.7734 93.7799 18.3268 95.9935 19.4336 97.8164C20.5404 99.5742 22.526 100.453 25.3906 100.453Z" fill="#81AF59"/>
<path d="M73.7266 133.738C73.1406 133.738 72.5547 133.673 71.9688 133.543C71.3828 133.413 70.7969 133.283 70.2109 133.152C64.4818 131.655 58.8503 130.646 53.3164 130.125C47.7826 129.604 42.0859 129.246 36.2266 129.051C35.3802 128.986 34.4362 128.888 33.3945 128.758C32.3529 128.562 31.4414 128.204 30.6602 127.684C29.8789 127.098 29.4883 126.251 29.4883 125.145C29.4883 123.257 30.1393 122.02 31.4414 121.434C32.8086 120.848 34.2734 120.555 35.8359 120.555C41.0443 120.555 46.2201 120.848 51.3633 121.434C56.5716 121.954 61.7148 122.638 66.793 123.484C67.444 123.549 68.388 123.712 69.625 123.973C70.862 124.233 72.1315 124.591 73.4336 125.047C74.7357 125.438 75.8424 125.958 76.7539 126.609C77.6654 127.26 78.1211 128.042 78.1211 128.953C78.1211 130.385 77.763 131.557 77.0469 132.469C76.3958 133.315 75.2891 133.738 73.7266 133.738ZM37.3008 208.445C33.9805 208.445 32.3203 206.85 32.3203 203.66C32.3203 202.488 32.6784 201.609 33.3945 201.023C34.1758 200.438 35.0547 200.014 36.0312 199.754C37.0729 199.493 38.0169 199.298 38.8633 199.168C43.0299 198.452 47.2943 197.378 51.6562 195.945C56.0833 194.513 60.1523 192.592 63.8633 190.184C67.5742 187.775 70.569 184.78 72.8477 181.199C75.1914 177.553 76.3633 173.191 76.3633 168.113C76.3633 163.882 75.4518 160.561 73.6289 158.152C71.806 155.743 69.3646 154.051 66.3047 153.074C63.2448 152.033 59.8268 151.512 56.0508 151.512C50.7122 151.512 45.569 152.098 40.6211 153.27C35.6732 154.441 30.6927 155.939 25.6797 157.762C25.0286 158.022 24.3125 158.283 23.5312 158.543C22.75 158.738 22.0013 158.836 21.2852 158.836C19.8529 158.836 18.7786 158.445 18.0625 157.664C17.3464 156.818 16.9883 155.678 16.9883 154.246C16.9883 152.879 17.7695 151.674 19.332 150.633C20.9596 149.526 23.043 148.582 25.582 147.801C28.1862 146.954 30.9857 146.238 33.9805 145.652C37.0404 145.001 40.0352 144.48 42.9648 144.09C45.9596 143.699 48.6289 143.406 50.9727 143.211C53.3815 143.016 55.1393 142.918 56.2461 142.918C62.0404 142.918 67.1836 143.732 71.6758 145.359C76.2331 146.922 79.8138 149.559 82.418 153.27C85.0221 156.98 86.3242 161.993 86.3242 168.309C86.3242 173.777 85.3151 178.595 83.2969 182.762C81.2786 186.928 78.4792 190.574 74.8984 193.699C71.3177 196.759 67.151 199.396 62.3984 201.609C58.6224 203.432 54.5534 205.027 50.1914 206.395C45.8294 207.762 41.5326 208.445 37.3008 208.445Z" fill="#81AF59"/>
<path d="M142.309 116.98C141.658 116.98 141.007 116.948 140.355 116.883C139.704 116.753 139.053 116.655 138.402 116.59C133.78 116.069 129.125 115.548 124.438 115.027C119.75 114.507 115.062 114.246 110.375 114.246C109.464 114.246 108.422 114.214 107.25 114.148C106.143 114.018 105.167 113.693 104.32 113.172C103.474 112.651 103.051 111.772 103.051 110.535C103.051 108.647 103.799 107.443 105.297 106.922C106.859 106.401 108.389 106.141 109.887 106.141C113.663 106.141 117.406 106.303 121.117 106.629C124.893 106.954 128.669 107.28 132.445 107.605C133.227 107.671 134.366 107.768 135.863 107.898C137.426 107.964 139.021 108.159 140.648 108.484C142.341 108.745 143.773 109.201 144.945 109.852C146.117 110.503 146.703 111.414 146.703 112.586C146.703 115.516 145.238 116.98 142.309 116.98ZM155.297 190.125C153.799 190.125 152.009 190.092 149.926 190.027C147.842 190.027 145.759 189.93 143.676 189.734C141.658 189.539 139.932 189.246 138.5 188.855C135.766 188.009 133.91 186.512 132.934 184.363C131.957 182.15 131.469 179.741 131.469 177.137V164.539C131.469 162.586 130.915 161.186 129.809 160.34C128.702 159.493 127.204 159.07 125.316 159.07C123.038 159.07 121.052 159.624 119.359 160.73C117.732 161.837 116.137 163.172 114.574 164.734L94.75 184.168C94.2292 184.689 93.5456 185.242 92.6992 185.828C91.918 186.414 91.1042 186.707 90.2578 186.707C87.263 186.707 85.7656 185.21 85.7656 182.215C85.7656 181.694 86.319 180.783 87.4258 179.48C88.5326 178.178 89.8672 176.746 91.4297 175.184C92.9922 173.621 94.4245 172.221 95.7266 170.984C97.0286 169.747 97.875 168.934 98.2656 168.543L131.469 137.488L134.105 134.852C134.105 134.396 133.812 134.168 133.227 134.168H96.8008C95.3685 134.168 94.1641 133.875 93.1875 133.289C92.2109 132.703 91.7227 131.596 91.7227 129.969C91.7227 128.341 92.2109 127.234 93.1875 126.648C94.1641 126.062 95.3685 125.77 96.8008 125.77H141.82C143.448 125.77 144.88 126.095 146.117 126.746C147.419 127.332 148.07 128.569 148.07 130.457C148.07 130.848 147.582 131.661 146.605 132.898C145.629 134.07 144.359 135.47 142.797 137.098C141.299 138.725 139.672 140.418 137.914 142.176C136.156 143.934 134.496 145.594 132.934 147.156C131.371 148.654 130.036 149.923 128.93 150.965C127.888 151.941 127.302 152.495 127.172 152.625C127.888 152.43 128.604 152.267 129.32 152.137C130.102 151.941 130.85 151.844 131.566 151.844C134.757 151.844 137.003 152.788 138.305 154.676C139.607 156.499 140.258 158.875 140.258 161.805V175.477C140.258 177.169 140.648 178.439 141.43 179.285C142.211 180.132 143.22 180.717 144.457 181.043C145.759 181.303 147.094 181.434 148.461 181.434C149.893 181.434 151.228 181.434 152.465 181.434C153.962 181.434 155.46 181.368 156.957 181.238C158.454 181.108 159.952 180.978 161.449 180.848C161.97 180.783 162.491 180.717 163.012 180.652C163.598 180.587 164.118 180.555 164.574 180.555C167.178 180.555 168.48 181.922 168.48 184.656C168.48 186.023 167.96 187.065 166.918 187.781C165.941 188.562 164.704 189.116 163.207 189.441C161.71 189.767 160.245 189.962 158.812 190.027C157.38 190.092 156.208 190.125 155.297 190.125Z" fill="#81AF59"/>
<path d="M123.422 90.0508C120.883 90.0508 118.669 89.3997 116.781 88.0977C114.893 86.8607 113.233 85.2656 111.801 83.3125C110.434 81.2943 109.262 79.2435 108.285 77.1602C106.592 73.5794 105.323 69.543 104.477 65.0508C103.63 60.4935 103.044 55.9036 102.719 51.2812C102.458 46.5938 102.328 42.2969 102.328 38.3906C102.328 35.7865 102.361 33.2148 102.426 30.6758C102.491 28.1367 102.556 25.5651 102.621 22.9609C102.686 21.7891 102.784 20.5195 102.914 19.1523C103.109 17.7201 103.533 16.5156 104.184 15.5391C104.9 14.4974 106.039 13.9766 107.602 13.9766C110.596 13.9766 112.094 15.5716 112.094 18.7617C112.094 20.8451 111.996 22.9609 111.801 25.1094C111.671 27.2578 111.605 29.3737 111.605 31.457C111.605 32.6289 111.605 34.6146 111.605 37.4141C111.671 40.1484 111.768 43.306 111.898 46.8867C112.094 50.4674 112.419 54.1133 112.875 57.8242C113.331 61.5352 113.982 64.9857 114.828 68.1758C115.674 71.3659 116.781 73.9701 118.148 75.9883C119.581 77.9414 121.306 78.918 123.324 78.918C125.017 78.918 126.352 78.332 127.328 77.1602C128.305 75.9232 129.086 74.4258 129.672 72.668C130.258 70.9102 130.811 69.1523 131.332 67.3945C131.918 65.5716 132.634 64.0742 133.48 62.9023C134.327 61.6654 135.499 61.0469 136.996 61.0469C140.121 61.0469 141.684 62.5443 141.684 65.5391C141.684 68.1432 141.13 70.8125 140.023 73.5469C138.982 76.2161 137.842 78.6576 136.605 80.8711C135.173 83.4102 133.383 85.5911 131.234 87.4141C129.151 89.1719 126.547 90.0508 123.422 90.0508ZM180.355 70.3242C178.663 70.3242 177.491 69.6732 176.84 68.3711C176.189 67.0039 175.766 65.6042 175.57 64.1719C175.049 60.2656 174.268 56.1966 173.227 51.9648C172.185 47.668 170.883 43.4688 169.32 39.3672C167.758 35.2656 165.87 31.5872 163.656 28.332C163.331 27.8112 162.875 27.1276 162.289 26.2812C161.768 25.4349 161.28 24.556 160.824 23.6445C160.368 22.7331 160.141 21.9844 160.141 21.3984C160.141 19.9661 160.531 18.957 161.312 18.3711C162.159 17.7852 163.233 17.4922 164.535 17.4922C165.382 17.4922 166.26 17.8828 167.172 18.6641C168.083 19.4453 168.962 20.4219 169.809 21.5938C170.655 22.7005 171.404 23.8073 172.055 24.9141C172.706 26.0208 173.194 26.8672 173.52 27.4531C174.691 29.6016 175.961 32.3034 177.328 35.5586C178.76 38.8138 180.062 42.2643 181.234 45.9102C182.471 49.556 183.48 53.0716 184.262 56.457C185.043 59.7773 185.434 62.6094 185.434 64.9531C185.434 68.5339 183.741 70.3242 180.355 70.3242Z" fill="#81AF59"/>
</svg>
