<svg width="392" height="202" viewBox="0 0 392 202" fill="none" xmlns="http://www.w3.org/2000/svg">
<rect width="391.306" height="201.436" rx="6" fill="#994ADF"/>
<mask id="path-2-inside-1_109_643" fill="white">
<rect width="391.306" height="201.436" rx="6"/>
</mask>
<rect width="391.306" height="201.436" rx="6" stroke="#7551B0" stroke-width="20" mask="url(#path-2-inside-1_109_643)"/>
<rect x="232.843" y="41" width="42.3952" height="93.5188" rx="21.1976" transform="rotate(9.89017 232.843 41)" fill="#7551B0"/>
<ellipse cx="268.554" cy="122.298" rx="49.2532" ry="29.3026" transform="rotate(9.89017 268.554 122.298)" fill="#7551B0"/>
<ellipse cx="277.932" cy="115.871" rx="32.1582" ry="19.1321" transform="rotate(13.8042 277.932 115.871)" fill="#7551B0"/>
<ellipse cx="229.223" cy="68.1655" rx="11.5161" ry="7.58433" transform="rotate(7.84484 229.223 68.1655)" fill="#7551B0"/>
<ellipse cx="227.086" cy="68.2039" rx="6.19384" ry="2.29335" transform="rotate(7.84484 227.086 68.2039)" fill="#7551B0"/>
<ellipse cx="256.993" cy="64.068" rx="7.16978" ry="9.35188" transform="rotate(4.51814 256.993 64.068)" fill="#7551B0"/>
<ellipse cx="259.331" cy="62.5342" rx="4.44945" ry="5.39092" transform="rotate(7.84484 259.331 62.5342)" fill="#7551B0"/>
<path d="M245.489 147.528C248.018 147.212 249.765 149.994 248.381 152.134L241.426 162.887C240.235 164.73 237.533 164.711 236.366 162.853L230.614 153.688C229.447 151.83 230.605 149.389 232.782 149.117L245.489 147.528Z" fill="#7551B0"/>
<path d="M274.829 156.208C274.752 153.66 277.686 152.183 279.686 153.763L289.737 161.697C291.46 163.057 291.187 165.745 289.228 166.732L279.563 171.597C277.603 172.584 275.281 171.201 275.215 169.008L274.829 156.208Z" fill="#7551B0"/>
<path d="M159.025 22.9292C160.529 21.3114 163.06 21.2195 164.678 22.7239L204.011 59.3011C205.629 60.8055 205.721 63.3365 204.217 64.9542L153.65 119.331C152.146 120.949 149.615 121.041 147.997 119.536L105.735 80.2351L159.025 22.9292Z" fill="#7551B0"/>
<rect x="119.805" y="65.1284" width="13.8781" height="64.3266" transform="rotate(42.9206 119.805 65.1284)" fill="#7551B0"/>
<circle cx="163.322" cy="34.1284" r="5" fill="#994ADF"/>
</svg>
