<svg width="392" height="202" viewBox="0 0 392 202" fill="none" xmlns="http://www.w3.org/2000/svg">
<rect width="391.306" height="201.436" rx="6" fill="#994ADF"/>
<mask id="path-2-inside-1_109_685" fill="white">
<rect width="391.306" height="201.436" rx="6"/>
</mask>
<rect width="391.306" height="201.436" rx="6" stroke="#7551B0" stroke-width="20" mask="url(#path-2-inside-1_109_685)"/>
<rect x="151.137" y="142.165" width="100.515" height="34.5329" fill="#7551B0"/>
<rect x="178.887" y="25" width="45.6327" height="120.248" rx="22.8163" fill="#7551B0"/>
<ellipse cx="202.905" cy="118.939" rx="44.0911" ry="39.4661" fill="#7551B0"/>
<rect x="145.587" y="133.532" width="112.232" height="34.5329" fill="#7551B0"/>
<ellipse cx="158.92" cy="101.785" rx="16.9581" ry="24.358" transform="rotate(19.5505 158.92 101.785)" fill="#7551B0"/>
<path d="M175.504 88.0122C173.066 109.18 163.267 126.257 153.604 125.144C143.942 124.031 136.467 113.8 140.511 83.9827C148.812 52.1336 166.656 49.985 176.319 51.0977C185.982 52.2104 177.941 66.8443 175.504 88.0122Z" fill="#7551B0"/>
<ellipse cx="17.2406" cy="24.358" rx="17.2406" ry="24.358" transform="matrix(-0.897224 0.441575 0.441575 0.897224 249.805 72.4056)" fill="#7551B0"/>
<path d="M224.981 129.081C236.141 132.867 251.088 130.475 257.637 123.712C264.187 116.948 263.941 109.43 248.698 104.588C237.538 100.802 223.182 103.216 216.632 109.98C210.083 116.743 213.82 125.295 224.981 129.081Z" fill="#7551B0"/>
</svg>
